<?xml version="1.0" encoding="UTF-8" standalone="no"?>
<svg
   xmlns:dc="http://purl.org/dc/elements/1.1/"
   xmlns:cc="http://creativecommons.org/ns#"
   xmlns:rdf="http://www.w3.org/1999/02/22-rdf-syntax-ns#"
   xmlns:svg="http://www.w3.org/2000/svg"
   xmlns="http://www.w3.org/2000/svg"
   xmlns:sodipodi="http://sodipodi.sourceforge.net/DTD/sodipodi-0.dtd"
   xmlns:inkscape="http://www.inkscape.org/namespaces/inkscape"
   width="261.05316"
   height="416.6597"
   viewBox="0 0 736.75004 1175.9062"
   version="1.1"
   id="svg2"
   inkscape:version="0.48.2 r9819"
   sodipodi:docname="MUTCD I-9.svg">
  <metadata
     id="metadata62">
    <rdf:RDF>
      <cc:Work
         rdf:about="">
        <dc:format>image/svg+xml</dc:format>
        <dc:type
           rdf:resource="http://purl.org/dc/dcmitype/StillImage" />
        <dc:title></dc:title>
      </cc:Work>
    </rdf:RDF>
  </metadata>
  <defs
     id="defs60" />
  <sodipodi:namedview
     pagecolor="#ffffff"
     bordercolor="#666666"
     borderopacity="1"
     objecttolerance="10"
     gridtolerance="10"
     guidetolerance="10"
     inkscape:pageopacity="0"
     inkscape:pageshadow="2"
     inkscape:window-width="1280"
     inkscape:window-height="1004"
     id="namedview58"
     showgrid="false"
     fit-margin-top="0"
     fit-margin-left="0"
     fit-margin-right="0"
     fit-margin-bottom="0"
     inkscape:zoom="1.3683986"
     inkscape:cx="137.03626"
     inkscape:cy="205.28581"
     inkscape:window-x="-8"
     inkscape:window-y="-8"
     inkscape:window-maximized="1"
     inkscape:current-layer="svg2"
     showguides="true"
     inkscape:guide-bbox="true" />
  <polygon
     points="315,545 235,375 315,205 395,375 "
     id="polygon10"
     style="fill:none;stroke:#ffffff;stroke-width:40"
     transform="translate(23095.718,7655.1871)" />
  <!-- draw the bicycle -->
  <!-- RIGHT -->
  <!-- LANE -->
  <!-- ONLY -->
  <path
     d="m 51.17365,2.3842871 634.38028,0 c 26.88037,0 48.79772,21.9173599 48.79772,48.8077399 l 0,1073.539673 c 0,26.8703 -21.91735,48.7877 -48.79772,48.7877 l -634.38028,0 c -26.8704,0 -48.7777,-21.9174 -48.7777,-48.7877 l 0,-1073.539673 c 0,-26.54948 22.2683,-48.8077399 48.7777,-48.8077399"
     style="fill:#ffffff;fill-opacity:1;fill-rule:nonzero;stroke:#000000;stroke-width:4.79777765;stroke-linecap:butt;stroke-linejoin:miter;stroke-miterlimit:4;stroke-opacity:1;stroke-dasharray:none"
     id="path3450"
     inkscape:connector-curvature="0" />
  <path
     d="m 685.31331,21.898357 c 15.6309,0.39103 28.29404,11.99139 29.49719,27.78272 L 714.8407,1124.484 c -0.39102,15.661 -11.98135,28.2339 -27.76265,29.4872 l -635.6538,0.04 c -15.6008,-0.3809 -28.274,-11.9712 -29.4671,-27.7626 l -0.04,-1074.822963 c 0.371,-15.63091 11.9813,-28.25394 27.7727,-29.47714 l 635.62356,-0.0501"
     style="fill:#00674c;fill-opacity:1;fill-rule:evenodd;stroke:none"
     id="path3454"
     inkscape:connector-curvature="0" />
  <path
     d="m 261.12305,152.04797 c 9.0237,-16.61348 26.3891,-27.23127 45.3888,-27.45185 l 121.5882,0 1.6444,0 c 19.2303,0 37.1873,11.03889 46.1708,27.82282 l 49.21882,84.43098 30.12884,-17.55595 -48.96816,89.09317 -101.6761,-1.2834 30.1389,-17.5559 -58.8641,-101.01438 c -1.3736,-2.85748 -4.3514,-4.70231 -7.5196,-4.70231 -3.2285,0 -6.2264,1.91502 -7.62,4.76247 l -68.2988,119.82362 -90.948,-51.78555 59.616,-104.58372 z"
     style="fill:#ffffff;fill-opacity:1;fill-rule:evenodd;stroke:none"
     id="path3458"
     inkscape:connector-curvature="0" />
  <path
     d="m 629.09616,416.54914 c 9.84578,16.1523 10.25683,36.5156 0.90235,53.0489 l -61.14,105.095 c -0.20038,0.3509 -0.63167,1.0528 -0.82217,1.4037 -9.67531,16.6135 -28.25394,26.5996 -47.27372,25.9479 l -97.71577,0.07 0.02,34.8713 -52.3871,-87.1381 52.2267,-87.2383 0.04,34.8813 116.90596,-0.09 c 3.15826,0.2506 6.2664,-1.3836 7.86056,-4.1308 1.62428,-2.7873 1.44379,-6.3567 -0.30076,-8.9635 l -69.22116,-119.3223 90.4868,-52.5275 60.41813,104.0925 z"
     style="fill:#ffffff;fill-opacity:1;fill-rule:evenodd;stroke:none"
     id="path3462"
     inkscape:connector-curvature="0" />
  <path
     d="m 216.89735,598.48544 c -18.9095,0.391 -36.7362,-9.4347 -46.3513,-25.8376 l -60.2678,-105.6064 c -0.2005,-0.361 -0.5915,-1.0628 -0.8021,-1.4137 -9.5048,-16.6837 -8.8531,-37.7689 1.2633,-53.8911 l 48.9582,-84.6014 -30.2091,-17.4657 101.6661,-1.6243 49.269,88.9328 -30.169,-17.4557 -58.5332,101.1949 c -1.8248,2.5968 -1.9852,6.0859 -0.4111,8.8531 1.6243,2.8174 4.7926,4.4617 7.9308,4.2512 l 137.931,-0.07 0.08,104.6338 -120.355,0.1002 z"
     style="fill:#ffffff;fill-opacity:1;fill-rule:evenodd;stroke:none"
     id="path3466"
     inkscape:connector-curvature="0" />
  <path
     d="m 602.61686,760.35904 0,-24.9854 -18.13746,0 0,12.6732 5.82523,0 0,13.004 c 0,6.487 -2.39626,10.5978 -6.8379,10.5978 -4.46168,0 -6.85795,-3.4089 -8.2215,-9.926 -1.02269,-8.2115 -1.70448,-14.7085 -1.70448,-28.0534 0,-13.355 0.68179,-19.852 2.05539,-27.7226 1.01264,-6.507 4.11077,-9.5851 8.55238,-9.5851 3.40893,0 5.48437,2.0454 6.15611,6.1461 l 12.31223,0 c -1.35354,-11.9613 -7.85055,-18.8192 -18.81926,-18.8192 -9.57506,0 -15.41032,3.7798 -18.46834,12.6731 -3.41895,9.2442 -4.44161,17.7866 -4.44161,37.3077 0,19.8419 1.02266,28.7352 4.0907,37.6485 3.07806,9.2241 8.89327,13.0542 18.81925,13.0542 8.89328,0 15.41033,-4.5018 17.46572,-11.3598 0.67175,-3.068 1.35354,-8.2115 1.35354,-12.6531 m -59.88674,22.2382 0,-97.5352 -12.31222,0 0,48.6072 -17.46572,-48.6072 -12.30213,0 0,97.5352 12.30213,0 0,-57.8213 19.17017,57.8213 10.60777,0 z m -63.30567,-97.5352 -12.3323,0 0,97.5352 12.3323,0 0,-97.5352 z m -25.6772,97.5352 0,-11.2795 -24.9854,0 0,-86.2557 -12.3323,0 0,97.5352 37.3177,0 z m -55.4552,-22.92 -12.6531,0 c 0,8.5625 -2.0553,11.9714 -6.497,11.9714 -4.1107,0 -6.517,-3.4089 -7.8906,-9.926 -1.6844,-8.2115 -2.0554,-14.0267 -2.0554,-27.7126 0,-13.014 0.371,-20.1928 2.0554,-28.0634 1.3736,-6.507 3.7799,-9.5851 8.2215,-9.5851 3.429,0 5.8152,2.0454 6.1661,6.1461 l 12.6531,0 c -1.0126,-11.9613 -8.2014,-18.8192 -19.1501,-18.8192 -11.6505,0 -17.4657,5.8252 -20.1928,20.8846 -1.3836,7.5297 -2.4063,20.5338 -2.4063,29.437 0,15.7312 1.3736,29.0762 4.0907,37.3077 3.0981,8.8933 9.2642,13.0542 19.1702,13.0542 8.5824,0 15.4304,-4.5018 17.1348,-11.6906 1.0227,-3.429 1.3535,-5.4744 1.3535,-13.0041 m -52.357,-74.6152 -13.3449,0 -12.6632,34.2295 -13.004,-34.2295 -13.3349,0 19.8119,53.3897 0,44.1455 12.6731,0 0,-44.1455 19.862,-53.3897 z m -62.9648,74.6152 -12.6431,0 c 0,8.5625 -2.0955,11.9714 -6.5471,11.9714 -4.0707,0 -6.477,-3.4089 -7.8506,-9.926 -1.7044,-8.2115 -2.0553,-14.0267 -2.0553,-27.7126 0,-13.014 0.3509,-20.1928 2.0553,-28.0634 1.3736,-6.507 3.7799,-9.5851 8.2216,-9.5851 3.4089,0 5.7951,2.0454 6.1761,6.1461 l 12.6431,0 c -1.0327,-11.9613 -8.2014,-18.8192 -19.1902,-18.8192 -11.6304,0 -17.4457,5.8252 -20.1929,20.8846 -1.3435,7.5297 -2.3662,20.5338 -2.3662,29.437 0,15.7312 1.3736,29.0762 4.0908,37.3077 3.0981,8.8933 9.2442,13.0542 19.1701,13.0542 8.5624,0 15.4003,-4.5018 17.1248,-11.6906 1.0127,-3.429 1.3636,-5.4744 1.3636,-13.0041 m -54.4224,22.92 0,-12.6531 -24.9854,0 0,-34.2296 15.7512,0 0,-13.004 -15.7512,0 0,-24.9854 23.6218,0 0,-12.6631 -35.934,0 0,97.5352 37.2976,0 z m -65.0302,-70.4945 c 0,9.2342 -2.0554,12.3223 -8.8933,12.3223 l -8.2215,0 0,-26.6999 6.1661,0 c 8.5424,0 10.9487,3.4089 10.9487,14.3776 m 12.6732,0.3409 c 0,-18.1374 -7.8907,-27.3816 -22.9301,-27.3816 l -19.1501,0 0,97.5352 12.2922,0 0,-45.5091 5.8152,0 10.9687,45.5091 12.6531,0 -9.9159,-48.5872 c 7.1687,-4.4516 10.2669,-10.6077 10.2669,-21.5664"
     style="fill:#ffffff;fill-opacity:1;fill-rule:evenodd;stroke:none"
     id="path3470"
     inkscape:connector-curvature="0" />
  <path
     d="m 624.06301,929.43164 0,-97.5654 -12.32224,0 0,48.6072 -17.46572,-48.6072 -12.30221,0 0,97.5654 12.30221,0 0,-57.8514 19.19023,57.8514 10.59773,0 z m -73.24169,-48.9582 c 0,6.5071 1.3736,37.9995 -9.57507,37.9995 -11.29958,0 -9.90591,-31.4924 -9.90591,-37.9995 0,-6.8479 -1.39367,-37.2976 9.90591,-37.2976 9.24419,0 9.57507,29.427 9.57507,37.2976 m 13.00404,0 c 0,-16.4229 1.37357,-49.9707 -22.57911,-49.9707 -23.95268,0 -22.59914,33.1968 -22.59914,49.9707 0,16.0922 -1.70445,50.7228 22.59914,50.7228 23.95268,0 22.57911,-34.6306 22.57911,-50.7228 m -63.66661,-48.6072 -12.3122,0 0,97.5654 12.3122,0 0,-97.5654 z m -25.9981,12.6832 0,-12.6832 -36.9567,0 0,12.6832 11.9613,0 0,84.8822 12.3423,0 0,-84.8822 12.6531,0 z m -47.5945,61.9522 -12.6431,0 c 0,8.5423 -2.0354,11.9713 -6.487,11.9713 -4.1308,0 -6.5171,-3.429 -7.8706,-9.936 -1.7245,-8.2015 -2.0754,-14.0267 -2.0754,-27.7125 0,-13.0041 0.3509,-20.2029 2.0754,-28.0635 1.3535,-6.517 3.7398,-9.5851 8.1914,-9.5851 3.439,0 5.8153,2.0554 6.1662,6.1561 l 12.6431,0 c -1.0127,-11.9813 -8.1814,-18.8292 -19.1301,-18.8292 -11.6505,0 -17.4657,5.8152 -20.2029,20.8946 -1.3936,7.5298 -2.4163,20.5238 -2.4163,29.4271 0,15.7412 1.3736,29.0861 4.1208,37.2976 3.0881,8.9033 9.2542,13.0742 19.1702,13.0742 8.5523,0 15.4103,-4.5118 17.1147,-11.7006 1.0327,-3.419 1.3436,-5.4743 1.3436,-12.994 m -54.3924,22.93 0,-12.6732 -24.9754,0 0,-34.2296 15.7312,0 0,-13.014 -15.7312,0 0,-24.9654 23.6219,0 0,-12.6832 -35.9742,0 0,97.5654 37.3277,0 z m -50.6626,0 0,-11.3096 -24.9653,0 0,-86.2558 -12.3423,0 0,97.5654 37.3076,0 z m -50.6425,0 0,-11.3096 -24.9854,0 0,-86.2558 -12.3323,0 0,97.5654 37.3177,0 z m -68.4592,-48.9582 c 0,6.5071 1.3736,37.9995 -9.5751,37.9995 -11.2795,0 -9.9259,-31.4924 -9.9259,-37.9995 0,-6.8479 -1.3536,-37.2976 9.9259,-37.2976 9.2442,0 9.5751,29.427 9.5751,37.2976 m 13.0241,0 c 0,-16.4229 1.3535,-49.9707 -22.5992,-49.9707 -23.9727,0 -22.5991,33.1968 -22.5991,49.9707 0,16.0922 -1.7045,50.7228 22.5991,50.7228 23.9527,0 22.5992,-34.6306 22.5992,-50.7228 m -60.5886,26.0282 -12.6732,0 c 0,8.5423 -2.0353,11.9713 -6.4769,11.9713 -4.1308,0 -6.5271,-3.429 -7.8907,-9.936 -1.7044,-8.2015 -2.0353,-14.0267 -2.0353,-27.7125 0,-13.0041 0.3309,-20.2029 2.0353,-28.0635 1.3636,-6.517 3.7599,-9.5851 8.2015,-9.5851 3.429,0 5.8353,2.0554 6.1661,6.1561 l 12.6732,0 c -1.0427,-11.9813 -8.2215,-18.8292 -19.1501,-18.8292 -11.6505,0 -17.4657,5.8152 -20.2129,20.8946 -1.3736,7.5298 -2.3863,20.5238 -2.3863,29.4271 0,15.7412 1.3536,29.0861 4.0907,37.2976 3.0981,8.9033 9.2442,13.0742 19.1702,13.0742 8.5424,0 15.4103,-4.5118 17.1148,-11.7006 1.0227,-3.419 1.3736,-5.4743 1.3736,-12.994"
     style="fill:#ffffff;fill-opacity:1;fill-rule:evenodd;stroke:none"
     id="path3474"
     inkscape:connector-curvature="0" />
  <path
     d="m 511.47833,1004.8891 c 0,9.2542 -2.07544,12.3322 -8.88328,12.3322 l -8.2516,0 0,-26.70986 6.1662,0 c 8.56237,0 10.96868,3.439 10.96868,14.37766 m 12.65312,0.3509 c 0,-18.14746 -7.87061,-27.37166 -22.93,-27.37166 l -19.1702,0 0,97.52526 12.3122,0 0,-45.5092 5.8153,0 10.96866,45.5092 12.65313,0 -9.90595,-48.5972 c 7.17881,-4.4517 10.25686,-10.6078 10.25686,-21.5564 m -57.4905,70.1536 0,-12.6632 -24.9954,0 0,-34.2095 15.7512,0 0,-13.004 -15.7512,0 0,-25.00546 23.6218,0 0,-12.6431 -35.9541,0 0,97.52526 37.3277,0 z m -50.9934,-84.88216 0,-12.6431 -36.9768,0 0,12.6431 11.9813,0 0,84.88216 12.3223,0 0,-84.88216 12.6732,0 z m -50.3318,84.88216 0,-97.52526 -12.3122,0 0,48.58716 -17.4557,-48.58716 -12.3122,0 0,97.52526 12.3122,0 0,-57.8414 19.1602,57.8414 10.6077,0 z m -57.4704,0 0,-12.6632 -25.0054,0 0,-34.2095 15.7412,0 0,-13.004 -15.7412,0 0,-25.00546 23.6318,0 0,-12.6431 -35.9541,0 0,97.52526 37.3277,0 z m -55.4451,-22.9301 -12.6631,0 c 0,8.5625 -2.0755,11.9914 -6.5271,11.9914 -4.1108,0 -6.477,-3.4289 -7.8706,-9.926 -1.7045,-8.2215 -2.0353,-14.0367 -2.0353,-27.7325 0,-13.0141 0.3308,-20.1728 2.0353,-28.07346 1.3936,-6.487 3.7598,-9.575 8.2215,-9.575 3.429,0 5.8252,2.0654 6.1762,6.1761 l 12.6631,0 c -1.0327,-12.0014 -8.2215,-18.8293 -19.1902,-18.8293 -11.6305,0 -17.4657,5.8153 -20.1828,20.8646 -1.3736,7.52976 -2.3963,20.54376 -2.3963,29.43706 0,15.7412 1.3535,29.1061 4.1007,37.2976 3.0681,8.9033 9.2342,13.0642 19.1702,13.0642 8.5524,0 15.3903,-4.5018 17.1148,-11.6906 1.0126,-3.409 1.3836,-5.4743 1.3836,-13.0041"
     style="fill:#ffffff;fill-opacity:1;fill-rule:evenodd;stroke:none"
     id="path3478"
     inkscape:connector-curvature="0" />
</svg>
