<?xml version="1.0" encoding="UTF-8" standalone="no"?>
<svg
   xmlns:dc="http://purl.org/dc/elements/1.1/"
   xmlns:cc="http://creativecommons.org/ns#"
   xmlns:rdf="http://www.w3.org/1999/02/22-rdf-syntax-ns#"
   xmlns:svg="http://www.w3.org/2000/svg"
   xmlns="http://www.w3.org/2000/svg"
   xmlns:sodipodi="http://sodipodi.sourceforge.net/DTD/sodipodi-0.dtd"
   xmlns:inkscape="http://www.inkscape.org/namespaces/inkscape"
   sodipodi:docname="R10-2.svg"
   inkscape:version="1.0rc1 (09960d6f05, 2020-04-09)"
   id="svg16146"
   version="1.1"
   viewBox="0 0 23.036388 30.656387"
   height="30.656387mm"
   width="23.036388mm">
  <defs
     id="defs16140">
    <clipPath
       clipPathUnits="userSpaceOnUse"
       id="clipPath10967">
      <path
         d="M 63.125,61.226 H 576.393 V 738 H 63.125 Z"
         id="path10965"
         inkscape:connector-curvature="0" />
    </clipPath>
  </defs>
  <sodipodi:namedview
     inkscape:window-maximized="1"
     inkscape:window-y="0"
     inkscape:window-x="0"
     inkscape:window-height="836"
     inkscape:window-width="1600"
     fit-margin-bottom="0"
     fit-margin-right="0"
     fit-margin-left="0"
     fit-margin-top="0"
     showgrid="false"
     inkscape:document-rotation="0"
     inkscape:current-layer="layer1"
     inkscape:document-units="mm"
     inkscape:cy="85.697883"
     inkscape:cx="46.390474"
     inkscape:zoom="1.979899"
     inkscape:pageshadow="2"
     inkscape:pageopacity="0.0"
     borderopacity="1.0"
     bordercolor="#666666"
     pagecolor="#ffffff"
     id="base" />
  <metadata
     id="metadata16143">
    <rdf:RDF>
      <cc:Work
         rdf:about="">
        <dc:format>image/svg+xml</dc:format>
        <dc:type
           rdf:resource="http://purl.org/dc/dcmitype/StillImage" />
        <dc:title></dc:title>
      </cc:Work>
    </rdf:RDF>
  </metadata>
  <g
     transform="translate(-93.559187,-109.40395)"
     id="layer1"
     inkscape:groupmode="layer"
     inkscape:label="Layer 1">
    <g
       transform="matrix(0.35277777,0,0,-0.35277777,69.392146,214.43753)"
       id="g10961">
      <g
         id="g10963"
         clip-path="url(#clipPath10967)">
        <g
           id="g10969"
           transform="translate(76.855,297.483)">
          <path
             d="m 0,0 h 48.6 c 4.462,0 8.1,-3.639 8.1,-8.1 v -70.199 c 0,-4.463 -3.638,-8.101 -8.1,-8.101 H 0 c -4.461,0 -8.1,3.638 -8.1,8.101 V -8.1 C -8.1,-3.693 -4.406,0 0,0"
             style="fill:#ffffff;fill-opacity:1;fill-rule:nonzero;stroke:#231f20;stroke-width:0.5;stroke-linecap:butt;stroke-linejoin:miter;stroke-miterlimit:4;stroke-dasharray:none;stroke-opacity:1"
             id="path10971"
             inkscape:connector-curvature="0" />
        </g>
        <g
           id="g10973"
           transform="translate(76.8799,295.458)">
          <path
             d="m 0,0 h 48.549 c 3.345,-0.012 6.08,-2.76 6.101,-6.1 v -70.149 c -0.021,-3.341 -2.756,-6.084 -6.101,-6.101 H 0 c -3.338,0.017 -6.089,2.76 -6.1,6.101 V -6.1 c 0.011,3.34 2.762,6.088 6.1,6.1"
             style="fill:#231f20;fill-opacity:1;fill-rule:evenodd;stroke:none"
             id="path10975"
             inkscape:connector-curvature="0" />
        </g>
        <g
           id="g10977"
           transform="translate(76.9106,293.0941)">
          <path
             d="m 0,0 h 48.488 c 2.085,-0.011 3.753,-1.679 3.765,-3.765 v -70.09 c -0.012,-2.074 -1.68,-3.766 -3.765,-3.764 H 0 c -2.084,-0.002 -3.756,1.69 -3.766,3.764 v 70.09 C -3.756,-1.679 -2.084,-0.011 0,0"
             style="fill:#ffffff;fill-opacity:1;fill-rule:evenodd;stroke:none"
             id="path10979"
             inkscape:connector-curvature="0" />
        </g>
        <g
           id="g10981"
           transform="translate(116.1465,284.999)">
          <path
             d="m 0,0 c 0,2.925 -3.503,2.009 -3.608,3.397 -0.054,0.679 0.602,0.888 1.15,0.86 0.837,-0.025 1.098,-0.652 1.098,-0.652 l 1.046,0.313 c -0.365,0.916 -1.072,1.517 -2.119,1.517 -1.332,0 -2.326,-0.551 -2.326,-2.014 0,-1.226 0.994,-1.671 1.439,-1.853 0.967,-0.395 2.117,-0.551 2.117,-1.544 0,-0.625 -0.471,-1.097 -1.15,-1.097 -0.707,0 -1.281,0.393 -1.595,1.097 l -1.125,-0.417 c 0.498,-1.125 1.439,-1.887 2.72,-1.887 0.627,0 1.203,0.214 1.62,0.58 C -0.262,-1.282 0,-0.68 0,0 m -5.778,0 c 0,2.925 -3.505,2.009 -3.608,3.397 -0.054,0.679 0.601,0.888 1.15,0.86 0.836,-0.025 1.097,-0.652 1.097,-0.652 l 1.047,0.313 c -0.366,0.916 -1.072,1.517 -2.119,1.517 -1.332,0 -2.327,-0.551 -2.327,-2.014 0,-1.226 0.995,-1.671 1.438,-1.853 0.969,-0.395 2.118,-0.551 2.118,-1.544 0,-0.625 -0.47,-1.097 -1.149,-1.097 -0.707,0 -1.283,0.393 -1.596,1.097 l -1.124,-0.417 c 0.496,-1.125 1.437,-1.887 2.72,-1.887 0.627,0 1.201,0.214 1.62,0.58 0.471,0.418 0.733,1.02 0.733,1.7 m -7.347,1.568 c 0,-0.577 -0.131,-1.309 -0.288,-1.7 -0.262,-0.655 -0.602,-0.941 -1.152,-0.941 -0.47,0 -0.784,0.184 -1.02,0.574 -0.286,0.471 -0.443,1.282 -0.443,2.067 0,0.627 0.103,1.307 0.286,1.748 0.262,0.654 0.628,0.941 1.203,0.916 0.445,-0.026 0.733,-0.184 0.969,-0.576 0.288,-0.496 0.445,-1.253 0.445,-2.088 m 1.175,0 c 0,0.939 -0.182,1.879 -0.496,2.533 -0.471,0.914 -1.124,1.334 -2.067,1.334 -0.862,0 -1.464,-0.262 -1.908,-0.838 -0.497,-0.705 -0.81,-1.803 -0.81,-3.029 0,-0.89 0.208,-1.883 0.522,-2.511 0.445,-0.915 1.098,-1.337 2.144,-1.337 0.785,0 1.386,0.266 1.806,0.842 0.522,0.651 0.809,1.828 0.809,3.006 m -7.687,1.645 c 0,-0.314 -0.183,-0.627 -0.471,-0.785 -0.183,-0.104 -0.313,-0.132 -0.68,-0.132 h -1.411 v 1.83 h 1.411 c 0.393,0 0.497,-0.025 0.68,-0.128 0.288,-0.158 0.471,-0.472 0.471,-0.785 m 1.334,-5.358 -1.308,3.476 c 0.68,0.314 1.151,1.097 1.151,1.882 0,0.757 -0.471,1.542 -1.124,1.855 -0.368,0.183 -0.759,0.235 -1.334,0.235 h -2.458 v -7.448 h 1.177 v 3.242 h 1.411 l 1.204,-3.242 z m -6.694,1.516 -1.124,0.42 c -0.288,-0.602 -0.654,-0.864 -1.151,-0.864 -0.523,0 -0.862,0.184 -1.124,0.574 -0.288,0.471 -0.471,1.282 -0.471,2.092 0,0.627 0.104,1.282 0.288,1.723 0.261,0.654 0.653,0.916 1.255,0.916 0.576,0 0.81,-0.156 1.229,-0.785 l 1.098,0.471 c -0.497,1.045 -1.203,1.517 -2.327,1.517 -0.837,0 -1.465,-0.29 -1.909,-0.838 -0.523,-0.652 -0.837,-1.829 -0.837,-3.004 0,-0.942 0.209,-1.884 0.549,-2.536 0.472,-0.915 1.176,-1.337 2.275,-1.337 1.072,0 1.804,0.554 2.249,1.651"
             style="fill:#231f20;fill-opacity:1;fill-rule:evenodd;stroke:none"
             id="path10983"
             inkscape:connector-curvature="0" />
        </g>
        <g
           id="g10985"
           transform="translate(113.143,279.124)">
          <path
             d="M 0,0 H -1.386 L -3.19,-2.874 -4.969,0 h -1.412 l 2.615,-4.207 v -3.241 h 1.177 v 3.241 z M -5.648,-7.448 V -6.35 H -9.1 V 0 h -1.177 v -7.448 z m -6.38,0 V 0 h -1.177 V -4.756 L -15.924,0 h -1.178 v -7.448 h 1.178 v 5.043 l 2.849,-5.043 z m -7.871,3.712 c 0,-0.577 -0.131,-1.305 -0.288,-1.7 -0.26,-0.654 -0.601,-0.939 -1.15,-0.939 -0.471,0 -0.784,0.183 -1.02,0.575 -0.288,0.468 -0.444,1.279 -0.444,2.064 0,0.627 0.104,1.306 0.287,1.75 0.262,0.653 0.627,0.941 1.203,0.915 0.445,-0.025 0.732,-0.183 0.967,-0.575 0.288,-0.498 0.445,-1.255 0.445,-2.09 m 1.177,0 c 0,0.941 -0.183,1.882 -0.497,2.534 -0.47,0.916 -1.125,1.332 -2.066,1.332 -0.862,0 -1.464,-0.259 -1.908,-0.837 -0.497,-0.704 -0.81,-1.801 -0.81,-3.029 0,-0.889 0.208,-1.884 0.522,-2.511 0.444,-0.912 1.098,-1.334 2.144,-1.334 0.784,0 1.386,0.264 1.804,0.838 0.523,0.653 0.811,1.832 0.811,3.007"
             style="fill:#231f20;fill-opacity:1;fill-rule:evenodd;stroke:none"
             id="path10987"
             inkscape:connector-curvature="0" />
        </g>
        <g
           id="g10989"
           transform="translate(107.1743,260.5001)">
          <path
             d="M 0,0 V 7.446 H -1.177 V 2.689 L -3.896,7.446 H -5.073 V 0 h 1.177 V 5.043 L -1.046,0 Z M -7.871,3.709 C -7.871,3.135 -8.002,2.403 -8.159,2.01 -8.42,1.358 -8.76,1.071 -9.31,1.071 c -0.47,0 -0.784,0.182 -1.019,0.574 -0.288,0.471 -0.444,1.281 -0.444,2.064 0,0.627 0.104,1.307 0.287,1.75 0.261,0.653 0.628,0.942 1.203,0.916 0.443,-0.025 0.731,-0.182 0.968,-0.576 0.287,-0.496 0.444,-1.254 0.444,-2.09 m 1.176,0 c 0,0.94 -0.183,1.882 -0.496,2.535 -0.471,0.916 -1.124,1.333 -2.066,1.333 -0.864,0 -1.464,-0.261 -1.908,-0.836 -0.498,-0.705 -0.811,-1.804 -0.811,-3.032 0,-0.888 0.209,-1.882 0.523,-2.509 0.444,-0.913 1.098,-1.335 2.143,-1.335 0.784,0 1.386,0.263 1.805,0.839 0.522,0.654 0.81,1.831 0.81,3.005"
             style="fill:#231f20;fill-opacity:1;fill-rule:evenodd;stroke:none"
             id="path10991"
             inkscape:connector-curvature="0" />
        </g>
        <g
           id="g10993"
           transform="translate(118.1645,218.2711)">
          <path
             d="M 0,0 V 1.098 H -3.451 V 7.446 H -4.628 V 0 Z M -8.157,3.292 H -9.648 L -8.89,5.384 Z M -5.752,0 -8.314,7.446 H -9.491 L -12.053,0 h 1.255 l 0.731,2.09 H -7.74 L -7.007,0 Z m -7.399,0 v 7.446 h -1.177 V 2.69 l -2.72,4.756 h -1.176 V 0 h 1.176 V 5.044 L -14.197,0 Z m -6.695,2.22 v 1.488 h -2.536 V 2.534 h 1.361 V 2.22 c 0,-0.68 -0.551,-1.149 -1.309,-1.149 -0.444,0 -0.784,0.183 -1.019,0.6 -0.236,0.471 -0.367,1.256 -0.367,2.037 0,0.629 0.105,1.309 0.288,1.752 0.262,0.654 0.654,0.915 1.255,0.915 0.575,0 0.889,-0.235 1.203,-0.89 l 1.124,0.447 c -0.496,1.174 -1.175,1.645 -2.327,1.645 -0.836,0 -1.464,-0.287 -1.908,-0.836 -0.497,-0.653 -0.837,-1.828 -0.837,-3.033 0,-0.912 0.183,-1.828 0.497,-2.48 0.445,-0.94 1.098,-1.365 2.222,-1.365 1.36,0 2.353,0.997 2.353,2.357 m -6.668,5.226 h -1.202 V 0 h 1.202 z m -2.43,-5.304 c 0,2.927 -3.505,2.012 -3.609,3.398 -0.053,0.679 0.601,0.887 1.151,0.862 0.836,-0.027 1.098,-0.654 1.098,-0.654 l 1.046,0.314 c -0.367,0.914 -1.072,1.515 -2.118,1.515 -1.334,0 -2.328,-0.548 -2.328,-2.011 0,-1.229 0.994,-1.672 1.438,-1.858 0.968,-0.389 2.119,-0.547 2.119,-1.539 0,-0.629 -0.471,-1.098 -1.151,-1.098 -0.706,0 -1.282,0.391 -1.596,1.098 L -34.018,1.75 c 0.497,-1.123 1.438,-1.887 2.72,-1.887 0.628,0 1.202,0.214 1.621,0.581 0.471,0.416 0.733,1.018 0.733,1.698"
             style="fill:#231f20;fill-opacity:1;fill-rule:evenodd;stroke:none"
             id="path10995"
             inkscape:connector-curvature="0" />
        </g>
        <path
           d="m 86.251,256.767 h 29.808 V 229.444 H 86.251 Z"
           style="fill:#231f20;fill-opacity:1;fill-rule:evenodd;stroke:none"
           id="path10997"
           inkscape:connector-curvature="0" />
        <g
           id="g10999"
           transform="translate(103.5469,253.8211)">
          <path
             d="m 0,0 c -0.863,0 -1.569,-0.707 -1.569,-1.57 0,-0.862 0.706,-1.568 1.569,-1.568 0.863,0 1.567,0.706 1.567,1.568 C 1.567,-0.707 0.863,0 0,0"
             style="fill:#ffffff;fill-opacity:1;fill-rule:evenodd;stroke:none"
             id="path11001"
             inkscape:connector-curvature="0" />
        </g>
        <g
           id="g11003"
           transform="translate(108.2934,243.934)">
          <path
             d="M 0,0 -3.288,2.191 C -3.44,2.836 -4.07,5.688 -5.337,6.346 -6.59,7.177 -11.209,3.774 -11.236,3.744 v -4.965 l 1.002,0.175 0.392,3.962 c 0.376,0.077 0.755,0.152 1.132,0.229 -0.825,-2.131 -1.127,-4.188 -0.654,-5.54 l -2.003,-8.189 1.35,-0.957 2.919,7.577 1.35,-1.436 1.873,-5.705 1.786,0.652 -1.613,6.012 -1.873,3.352 0.719,2.474 0.763,-0.993 3.571,-1.177 z"
             style="fill:#ffffff;fill-opacity:1;fill-rule:evenodd;stroke:none"
             id="path11005"
             inkscape:connector-curvature="0" />
        </g>
      </g>
    </g>
  </g>
</svg>
