<?xml version="1.0" encoding="UTF-8" standalone="no"?>
<!-- Created with Inkscape (http://www.inkscape.org/) -->

<svg
   width="15.416389mm"
   height="23.036388mm"
   viewBox="0 0 15.416389 23.036388"
   version="1.1"
   id="svg1"
   inkscape:version="1.3 (0e150ed, 2023-07-21)"
   sodipodi:docname="MUTCD_R7-10.svg"
   xmlns:inkscape="http://www.inkscape.org/namespaces/inkscape"
   xmlns:sodipodi="http://sodipodi.sourceforge.net/DTD/sodipodi-0.dtd"
   xmlns="http://www.w3.org/2000/svg"
   xmlns:svg="http://www.w3.org/2000/svg">
  <sodipodi:namedview
     id="namedview1"
     pagecolor="#ffffff"
     bordercolor="#666666"
     borderopacity="1.0"
     inkscape:showpageshadow="2"
     inkscape:pageopacity="0.0"
     inkscape:pagecheckerboard="0"
     inkscape:deskcolor="#d1d1d1"
     inkscape:document-units="mm"
     inkscape:zoom="2.8284271"
     inkscape:cx="19.091883"
     inkscape:cy="38.890873"
     inkscape:window-width="1440"
     inkscape:window-height="431"
     inkscape:window-x="0"
     inkscape:window-y="23"
     inkscape:window-maximized="0"
     inkscape:current-layer="layer1" />
  <defs
     id="defs1">
    <clipPath
       clipPathUnits="userSpaceOnUse"
       id="clipPath58">
      <path
         d="M 26.975,44.288 H 537.001 V 743 H 26.975 Z"
         transform="translate(-111.2281,-63.786204)"
         id="path58" />
    </clipPath>
    <clipPath
       clipPathUnits="userSpaceOnUse"
       id="clipPath60">
      <path
         d="M 26.975,44.288 H 537.001 V 743 H 26.975 Z"
         transform="translate(-143.62821,-128.96121)"
         id="path60" />
    </clipPath>
    <clipPath
       clipPathUnits="userSpaceOnUse"
       id="clipPath62">
      <path
         d="M 26.975,44.288 H 537.001 V 743 H 26.975 Z"
         transform="translate(-107.1783,-69.311499)"
         id="path62" />
    </clipPath>
    <clipPath
       clipPathUnits="userSpaceOnUse"
       id="clipPath64">
      <path
         d="M 26.975,44.288 H 537.001 V 743 H 26.975 Z"
         transform="translate(-108.5283,-69.311499)"
         id="path64" />
    </clipPath>
    <clipPath
       clipPathUnits="userSpaceOnUse"
       id="clipPath66">
      <path
         d="M 26.975,44.288 H 537.001 V 743 H 26.975 Z"
         id="path66" />
    </clipPath>
    <clipPath
       clipPathUnits="userSpaceOnUse"
       id="clipPath68">
      <path
         d="M 26.975,44.288 H 537.001 V 743 H 26.975 Z"
         transform="translate(-118.8783,-69.311499)"
         id="path68" />
    </clipPath>
    <clipPath
       clipPathUnits="userSpaceOnUse"
       id="clipPath70">
      <path
         d="M 26.975,44.288 H 537.001 V 743 H 26.975 Z"
         id="path70" />
    </clipPath>
    <clipPath
       clipPathUnits="userSpaceOnUse"
       id="clipPath72">
      <path
         d="M 26.975,44.288 H 537.001 V 743 H 26.975 Z"
         transform="translate(-111.89541,-100.45491)"
         id="path72" />
    </clipPath>
    <clipPath
       clipPathUnits="userSpaceOnUse"
       id="clipPath74">
      <path
         d="M 26.975,44.288 H 537.001 V 743 H 26.975 Z"
         transform="translate(-117.5332,-99.292105)"
         id="path74" />
    </clipPath>
    <clipPath
       clipPathUnits="userSpaceOnUse"
       id="clipPath76">
      <path
         d="M 26.975,44.288 H 537.001 V 743 H 26.975 Z"
         transform="translate(-122.4115,-102.50061)"
         id="path76" />
    </clipPath>
    <clipPath
       clipPathUnits="userSpaceOnUse"
       id="clipPath78">
      <path
         d="M 26.975,44.288 H 537.001 V 743 H 26.975 Z"
         transform="translate(-128.3256,-99.823202)"
         id="path78" />
    </clipPath>
    <clipPath
       clipPathUnits="userSpaceOnUse"
       id="clipPath80">
      <path
         d="M 26.975,44.288 H 537.001 V 743 H 26.975 Z"
         id="path80" />
    </clipPath>
    <clipPath
       clipPathUnits="userSpaceOnUse"
       id="clipPath82">
      <path
         d="M 26.975,44.288 H 537.001 V 743 H 26.975 Z"
         transform="translate(-135.5196,-101.13621)"
         id="path82" />
    </clipPath>
    <clipPath
       clipPathUnits="userSpaceOnUse"
       id="clipPath84">
      <path
         d="M 26.975,44.288 H 537.001 V 743 H 26.975 Z"
         transform="translate(-142.1934,-96.185402)"
         id="path84" />
    </clipPath>
    <clipPath
       clipPathUnits="userSpaceOnUse"
       id="clipPath86">
      <path
         d="M 26.975,44.288 H 537.001 V 743 H 26.975 Z"
         transform="translate(-119.5401,-90.026702)"
         id="path86" />
    </clipPath>
    <clipPath
       clipPathUnits="userSpaceOnUse"
       id="clipPath88">
      <path
         d="M 26.975,44.288 H 537.001 V 743 H 26.975 Z"
         transform="translate(-124.13901,-88.536302)"
         id="path88" />
    </clipPath>
    <clipPath
       clipPathUnits="userSpaceOnUse"
       id="clipPath90">
      <path
         d="M 26.975,44.288 H 537.001 V 743 H 26.975 Z"
         transform="translate(-128.7246,-90.9115)"
         id="path90" />
    </clipPath>
    <clipPath
       clipPathUnits="userSpaceOnUse"
       id="clipPath92">
      <path
         d="M 26.975,44.288 H 537.001 V 743 H 26.975 Z"
         transform="translate(-135.6432,-83.711402)"
         id="path92" />
    </clipPath>
    <clipPath
       clipPathUnits="userSpaceOnUse"
       id="clipPath94">
      <path
         d="M 26.975,44.288 H 537.001 V 743 H 26.975 Z"
         transform="translate(-112.1644,-109.92201)"
         id="path94" />
    </clipPath>
    <clipPath
       clipPathUnits="userSpaceOnUse"
       id="clipPath96">
      <path
         d="M 26.975,44.288 H 537.001 V 743 H 26.975 Z"
         transform="translate(-117.5871,-111.8922)"
         id="path96" />
    </clipPath>
    <clipPath
       clipPathUnits="userSpaceOnUse"
       id="clipPath98">
      <path
         d="M 26.975,44.288 H 537.001 V 743 H 26.975 Z"
         transform="translate(-124.2825,-114.1917)"
         id="path98" />
    </clipPath>
    <clipPath
       clipPathUnits="userSpaceOnUse"
       id="clipPath100">
      <path
         d="M 26.975,44.288 H 537.001 V 743 H 26.975 Z"
         transform="translate(-128.45301,-112.42311)"
         id="path100" />
    </clipPath>
    <clipPath
       clipPathUnits="userSpaceOnUse"
       id="clipPath102">
      <path
         d="M 26.975,44.288 H 537.001 V 743 H 26.975 Z"
         id="path102" />
    </clipPath>
    <clipPath
       clipPathUnits="userSpaceOnUse"
       id="clipPath104">
      <path
         d="M 26.975,44.288 H 537.001 V 743 H 26.975 Z"
         transform="translate(-140.724,-113.7363)"
         id="path104" />
    </clipPath>
  </defs>
  <g
     inkscape:label="Layer 1"
     inkscape:groupmode="layer"
     id="layer1"
     transform="translate(-82.814582,-80.433331)">
    <path
       id="path57"
       d="m 0,0 c -3.046,0 -5.525,2.479 -5.525,5.525 v 54 c 0,3.046 2.479,5.525 5.525,5.525 h 32.4 c 3.047,0 5.525,-2.479 5.525,-5.525 v -54 C 37.925,2.479 35.447,0 32.4,0 Z"
       style="fill:#ffffff;fill-opacity:1;fill-rule:nonzero;stroke:none"
       transform="matrix(0.35277776,0,0,-0.35277776,84.807739,103.42562)"
       clip-path="url(#clipPath58)" />
    <path
       id="path59"
       d="m 0,0 h -32.4 c -3.115,0 -5.65,-2.535 -5.65,-5.65 v -54 c 0,-3.115 2.535,-5.65 5.65,-5.65 H 0 c 3.115,0 5.65,2.535 5.65,5.65 v 54 C 5.65,-2.535 3.115,0 0,0 m 0,-0.25 c 2.982,0 5.4,-2.418 5.4,-5.4 v -54 c 0,-2.982 -2.418,-5.4 -5.4,-5.4 h -32.4 c -2.982,0 -5.4,2.418 -5.4,5.4 v 54 c 0,2.982 2.418,5.4 5.4,5.4 z"
       style="fill:#000000;fill-opacity:1;fill-rule:nonzero;stroke:none"
       transform="matrix(0.35277776,0,0,-0.35277776,96.237775,80.433331)"
       clip-path="url(#clipPath60)" />
    <path
       id="path61"
       d="m 0,0 c 0,-2.233 1.817,-4.05 4.05,-4.05 h 32.4 c 2.233,0 4.05,1.817 4.05,4.05 v 54 c 0,2.233 -1.817,4.05 -4.05,4.05 H 4.05 C 1.817,58.05 0,56.233 0,54 Z"
       style="fill:#006f51;fill-opacity:1;fill-rule:nonzero;stroke:none"
       transform="matrix(0.35277776,0,0,-0.35277776,83.37906,101.47642)"
       clip-path="url(#clipPath62)" />
    <path
       id="path63"
       d="m 0,0 c 0,-1.489 1.211,-2.7 2.7,-2.7 h 32.4 c 1.489,0 2.7,1.211 2.7,2.7 v 54 c 0,1.489 -1.211,2.7 -2.7,2.7 H 2.7 C 1.211,56.7 0,55.489 0,54 Z"
       style="fill:#ffffff;fill-opacity:1;fill-rule:nonzero;stroke:none"
       transform="matrix(0.35277776,0,0,-0.35277776,83.85531,101.47642)"
       clip-path="url(#clipPath64)" />
    <path
       id="path65"
       d="m 118.205,74.261 h 23.173 v -2.7 h -23.173 z"
       style="fill:#006f51;fill-opacity:1;fill-rule:nonzero;stroke:none"
       transform="matrix(0.35277776,0,0,-0.35277776,45.568938,125.92798)"
       clip-path="url(#clipPath66)" />
    <path
       id="path67"
       d="m 0,0 c 0.249,0 0.45,0.201 0.45,0.45 0,0.054 -0.009,0.105 -0.027,0.153 L -0.675,3.6 0.423,6.597 C 0.441,6.645 0.45,6.696 0.45,6.75 0.45,6.999 0.249,7.2 0,7.2 -0.093,7.2 -0.18,7.172 -0.251,7.123 L -5.4,3.6 -0.251,0.077 C -0.18,0.028 -0.093,0 0,0"
       style="fill:#006f51;fill-opacity:1;fill-rule:nonzero;stroke:none"
       transform="matrix(0.35277776,0,0,-0.35277776,87.50656,101.47642)"
       clip-path="url(#clipPath68)" />
    <path
       id="path69"
       d="m 131.697,112.827 h 3.6 v -0.96 h -3.6 z"
       style="fill:#006f51;fill-opacity:1;fill-rule:nonzero;stroke:none"
       transform="matrix(0.35277776,0,0,-0.35277776,45.568938,125.92798)"
       clip-path="url(#clipPath70)" />
    <path
       id="path71"
       d="m 0,0 h 1.058 c 0.605,0 0.934,0.378 0.934,1.035 0,0.607 -0.382,1.011 -0.933,1.011 H 0 Z m 0,-0.985 v -3.159 h -1.033 v 7.2 H 1.11 c 1.135,0 1.891,-0.811 1.891,-2.021 0,-1.314 -0.682,-2.02 -1.891,-2.02 z"
       style="fill:#006f51;fill-opacity:1;fill-rule:nonzero;stroke:none"
       transform="matrix(0.35277776,0,0,-0.35277776,85.043149,90.48972)"
       clip-path="url(#clipPath72)" />
    <path
       id="path73"
       d="M 0,0 H 1.039 L 0.507,2.072 Z m 1.291,-1.011 h -1.544 l -0.481,-1.97 h -1.039 l 1.798,7.2 h 1.014 l 1.798,-7.2 H 1.798 Z"
       style="fill:#006f51;fill-opacity:1;fill-rule:nonzero;stroke:none"
       transform="matrix(0.35277776,0,0,-0.35277776,87.032038,90.89993)"
       clip-path="url(#clipPath74)" />
    <path
       id="path75"
       d="m 0,0 v -1.819 h 1.058 c 0.607,0 0.934,0.329 0.934,0.91 C 1.992,-0.353 1.614,0 1.059,0 Z M 0.984,-2.804 H 0 v -3.385 h -1.033 v 7.2 H 1.11 c 1.129,0 1.891,-0.758 1.891,-1.92 0,-0.859 -0.354,-1.49 -1.035,-1.743 L 3,-6.189 H 1.942 Z"
       style="fill:#006f51;fill-opacity:1;fill-rule:nonzero;stroke:none"
       transform="matrix(0.35277776,0,0,-0.35277776,88.752994,89.768042)"
       clip-path="url(#clipPath76)" />
    <path
       id="path77"
       d="m 0,0 -0.656,-1.211 v -2.301 h -1.033 v 7.2 h 1.033 v -2.88 l 1.639,2.88 H 2.169 L 0.68,1.162 2.344,-3.512 H 1.261 Z"
       style="fill:#006f51;fill-opacity:1;fill-rule:nonzero;stroke:none"
       transform="matrix(0.35277776,0,0,-0.35277776,90.839357,90.71257)"
       clip-path="url(#clipPath78)" />
    <path
       id="path79"
       d="m 131.895,103.511 h 1.008 v -7.2 h -1.008 z"
       style="fill:#006f51;fill-opacity:1;fill-rule:nonzero;stroke:none"
       transform="matrix(0.35277776,0,0,-0.35277776,45.568938,125.92798)"
       clip-path="url(#clipPath80)" />
    <path
       id="path81"
       d="m 0,0 v -4.825 h -1.033 v 7.2 H 0 l 1.966,-4.32 v 4.32 h 1.035 v -7.2 H 2.219 Z"
       style="fill:#006f51;fill-opacity:1;fill-rule:nonzero;stroke:none"
       transform="matrix(0.35277776,0,0,-0.35277776,93.377241,90.249372)"
       clip-path="url(#clipPath82)" />
    <path
       id="path83"
       d="m 0,0 c -0.655,0 -2.233,0.122 -2.233,3.713 0,3.592 1.5,3.738 2.156,3.738 1.041,0 1.827,-0.757 1.878,-1.818 H 0.76 c -0.025,0.481 -0.354,0.809 -0.862,0.809 -0.347,0 -1.141,-0.109 -1.141,-2.73 0,-2.62 0.87,-2.702 1.217,-2.702 0.533,0 0.786,0.351 0.786,1.111 v 0.48 H -0.051 V 3.613 H 1.801 V 2.122 C 1.801,0.32 0.615,0 0,0"
       style="fill:#006f51;fill-opacity:1;fill-rule:nonzero;stroke:none"
       transform="matrix(0.35277776,0,0,-0.35277776,95.731609,91.995905)"
       clip-path="url(#clipPath84)" />
    <path
       id="path85"
       d="m 0,0 c -0.205,0 -1.133,0.042 -1.133,-2.705 0,-2.768 0.928,-2.726 1.133,-2.726 0.205,0 1.132,-0.042 1.132,2.726 C 1.132,0.042 0.205,0 0,0 m -2.125,-2.7 c 0,3.77 1.749,3.71 2.137,3.71 0.388,0 2.113,0.057 2.113,-3.713 0,-3.797 -1.725,-3.737 -2.113,-3.737 -0.388,0 -2.137,-0.06 -2.137,3.74"
       style="fill:#006f51;fill-opacity:1;fill-rule:nonzero;stroke:none"
       transform="matrix(0.35277776,0,0,-0.35277776,87.740028,94.168558)"
       clip-path="url(#clipPath86)" />
    <path
       id="path87"
       d="m 0,0 v -4.825 h -1.033 v 7.2 H 0 l 1.967,-4.32 v 4.32 h 1.034 v -7.2 H 2.22 Z"
       style="fill:#006f51;fill-opacity:1;fill-rule:nonzero;stroke:none"
       transform="matrix(0.35277776,0,0,-0.35277776,89.362419,94.694338)"
       clip-path="url(#clipPath88)" />
    <path
       id="path89"
       d="M 0,0 H 1.039 V -6.24 H 3.674 V -7.2 H 0 Z"
       style="fill:#006f51;fill-opacity:1;fill-rule:nonzero;stroke:none"
       transform="matrix(0.35277776,0,0,-0.35277776,90.980116,93.856421)"
       clip-path="url(#clipPath90)" />
    <path
       id="path91"
       d="M 0,0 H -1.039 V 3.259 L -2.812,7.2 h 1.089 L -0.507,4.598 0.684,7.2 H 1.798 L 0,3.259 Z"
       style="fill:#006f51;fill-opacity:1;fill-rule:nonzero;stroke:none"
       transform="matrix(0.35277776,0,0,-0.35277776,93.420844,96.396455)"
       clip-path="url(#clipPath92)" />
    <path
       id="path93"
       d="m 0,0 h 1.033 c 0.581,0 0.959,0.404 0.959,1.036 0,0.696 -0.417,1.212 -0.958,1.212 H 0 Z m 0,5.179 v -1.92 h 1.084 c 0.48,0 0.782,0.404 0.782,1.061 0,0.619 -0.222,0.859 -0.781,0.859 z m -1.033,-6.19 v 7.2 H 1.236 C 2.192,6.189 2.875,5.431 2.875,4.32 2.875,3.66 2.699,3.36 2.119,2.753 2.673,2.299 3.001,1.692 3.001,0.959 c 0,-1.077 -0.858,-1.97 -1.916,-1.97 z"
       style="fill:#006f51;fill-opacity:1;fill-rule:nonzero;stroke:none"
       transform="matrix(0.35277776,0,0,-0.35277776,85.138044,87.149937)"
       clip-path="url(#clipPath94)" />
    <path
       id="path95"
       d="M 0,0 H 1.039 L 0.507,2.072 Z m 1.292,-1.011 h -1.545 l -0.482,-1.97 h -1.038 l 1.798,7.2 H 1.04 l 1.797,-7.2 H 1.798 Z"
       style="fill:#006f51;fill-opacity:1;fill-rule:nonzero;stroke:none"
       transform="matrix(0.35277776,0,0,-0.35277776,87.051053,86.454895)"
       clip-path="url(#clipPath96)" />
    <path
       id="path97"
       d="m 0,0 c -0.1,0.707 -0.38,1.036 -0.862,1.036 -0.837,0 -1.143,-0.657 -1.143,-2.525 0,-2.072 0.356,-2.906 1.244,-2.906 0.61,0 0.761,0.506 0.761,1.036 h 1.041 c -0.026,-1.187 -0.786,-2.046 -1.802,-2.046 -1.547,0 -2.233,1.237 -2.233,3.89 0,2.323 0.736,3.56 2.157,3.56 1.319,0 1.842,-1.204 1.878,-2.045 z"
       style="fill:#006f51;fill-opacity:1;fill-rule:nonzero;stroke:none"
       transform="matrix(0.35277776,0,0,-0.35277776,89.413042,85.643683)"
       clip-path="url(#clipPath98)" />
    <path
       id="path99"
       d="M 0,0 -0.656,-1.211 V -3.512 H -1.69 v 7.2 h 1.034 v -2.88 l 1.639,2.88 H 2.169 L 0.681,1.162 2.345,-3.512 H 1.261 Z"
       style="fill:#006f51;fill-opacity:1;fill-rule:nonzero;stroke:none"
       transform="matrix(0.35277776,0,0,-0.35277776,90.884302,86.267605)"
       clip-path="url(#clipPath100)" />
    <path
       id="path101"
       d="m 137.098,116.111 h 1.008 v -7.2 h -1.008 z"
       style="fill:#006f51;fill-opacity:1;fill-rule:nonzero;stroke:none"
       transform="matrix(0.35277776,0,0,-0.35277776,45.568938,125.92798)"
       clip-path="url(#clipPath102)" />
    <path
       id="path103"
       d="m 0,0 v -4.825 h -1.033 v 7.2 H 0 l 1.967,-4.32 v 4.32 h 1.034 v -7.2 H 2.22 Z"
       style="fill:#006f51;fill-opacity:1;fill-rule:nonzero;stroke:none"
       transform="matrix(0.35277776,0,0,-0.35277776,95.213237,85.804338)"
       clip-path="url(#clipPath104)" />
  </g>
</svg>
