<?xml version="1.0" encoding="UTF-8" standalone="no"?>
<!-- Created with Inkscape (http://www.inkscape.org/) -->

<svg
   width="15.416389mm"
   height="23.036388mm"
   viewBox="0 0 15.416389 23.036388"
   version="1.1"
   id="svg1"
   inkscape:version="1.3 (0e150ed, 2023-07-21)"
   sodipodi:docname="MUTCD_R7-4a.svg"
   xmlns:inkscape="http://www.inkscape.org/namespaces/inkscape"
   xmlns:sodipodi="http://sodipodi.sourceforge.net/DTD/sodipodi-0.dtd"
   xmlns="http://www.w3.org/2000/svg"
   xmlns:svg="http://www.w3.org/2000/svg">
  <sodipodi:namedview
     id="namedview1"
     pagecolor="#ffffff"
     bordercolor="#666666"
     borderopacity="1.0"
     inkscape:showpageshadow="2"
     inkscape:pageopacity="0.0"
     inkscape:pagecheckerboard="0"
     inkscape:deskcolor="#d1d1d1"
     inkscape:document-units="mm"
     inkscape:zoom="1"
     inkscape:cx="29"
     inkscape:cy="43"
     inkscape:window-width="1440"
     inkscape:window-height="431"
     inkscape:window-x="0"
     inkscape:window-y="23"
     inkscape:window-maximized="0"
     inkscape:current-layer="layer1" />
  <defs
     id="defs1" />
  <g
     inkscape:label="Layer 1"
     inkscape:groupmode="layer"
     id="layer1"
     transform="translate(-96.837494,-137.05417)">
    <g
       id="g1372"
       transform="matrix(0.26458333,0,0,0.26458333,-30.60884,98.24466)">
      <path
         id="path1373"
         d="m 0,0 c -3.047,0 -5.525,2.479 -5.525,5.525 v 54 c 0,3.047 2.478,5.525 5.525,5.525 h 32.4 c 3.046,0 5.525,-2.478 5.525,-5.525 v -54 C 37.925,2.479 35.446,0 32.4,0 Z"
         style="fill:#ffffff;fill-opacity:1;fill-rule:nonzero;stroke:none"
         transform="matrix(1.3333333,0,0,-1.3333333,489.22013,233.58173)" />
    </g>
    <g
       id="g1373"
       transform="matrix(0.26458333,0,0,0.26458333,-30.60884,98.24466)">
      <path
         id="path1374"
         d="m 0,0 h -32.4 c -3.115,0 -5.65,-2.535 -5.65,-5.65 v -54 c 0,-3.115 2.535,-5.65 5.65,-5.65 H 0 c 3.115,0 5.65,2.535 5.65,5.65 v 54 C 5.65,-2.535 3.115,0 0,0 m 0,-0.25 c 2.97,0 5.4,-2.43 5.4,-5.4 v -54 c 0,-2.97 -2.43,-5.4 -5.4,-5.4 h -32.4 c -2.97,0 -5.4,2.43 -5.4,5.4 v 54 c 0,2.97 2.43,5.4 5.4,5.4 z"
         style="fill:#000000;fill-opacity:1;fill-rule:nonzero;stroke:none"
         transform="matrix(1.3333333,0,0,-1.3333333,532.42027,146.6816)" />
    </g>
    <g
       id="g1374"
       transform="matrix(0.26458333,0,0,0.26458333,-30.60884,98.24466)">
      <path
         id="path1375"
         d="m 0,0 c -2.233,0 -4.05,1.817 -4.05,4.05 v 54 c 0,2.233 1.817,4.05 4.05,4.05 h 32.4 c 2.233,0 4.05,-1.817 4.05,-4.05 v -54 C 36.45,1.817 34.633,0 32.4,0 Z"
         style="fill:#c0311a;fill-opacity:1;fill-rule:nonzero;stroke:none"
         transform="matrix(1.3333333,0,0,-1.3333333,489.22027,231.61493)" />
      <path
         id="path1376"
         d="m 0,0 c -1.489,0 -2.7,1.211 -2.7,2.7 v 54 c 0,1.489 1.211,2.7 2.7,2.7 h 32.4 c 1.489,0 2.7,-1.211 2.7,-2.7 V 2.7 C 35.1,1.211 33.889,0 32.4,0 Z"
         style="fill:#ffffff;fill-opacity:1;fill-rule:nonzero;stroke:none"
         transform="matrix(1.3333333,0,0,-1.3333333,489.22027,229.8148)" />
    </g>
    <g
       id="g1376"
       transform="matrix(0.26458333,0,0,0.26458333,-30.60884,98.24466)">
      <path
         id="path1377"
         d="m 393.418,624.588 h -20.75 v 2.7 h 20.75 z"
         style="fill:#c0311a;fill-opacity:1;fill-rule:nonzero;stroke:none"
         transform="matrix(1.3333333,0,0,-1.3333333,0,1056)" />
    </g>
    <g
       id="g1377"
       transform="matrix(0.26458333,0,0,0.26458333,-30.60884,98.24466)">
      <path
         id="path1378"
         d="m 0,0 c 0.249,0 0.45,0.201 0.45,0.45 0,0.054 -0.009,0.105 -0.027,0.153 L -0.675,3.6 0.423,6.597 C 0.441,6.645 0.45,6.696 0.45,6.75 0.45,6.999 0.249,7.2 0,7.2 -0.093,7.2 -0.18,7.172 -0.251,7.123 L -5.4,3.6 -0.251,0.077 C -0.18,0.028 -0.093,0 0,0"
         style="fill:#c0311a;fill-opacity:1;fill-rule:nonzero;stroke:none"
         transform="matrix(1.3333333,0,0,-1.3333333,499.42027,226.21507)" />
    </g>
    <g
       id="g1378"
       transform="matrix(0.26458333,0,0,0.26458333,-30.60884,98.24466)">
      <path
         id="path1379"
         d="m 0,0 c -0.249,0 -0.45,-0.201 -0.45,-0.45 0,-0.054 0.009,-0.105 0.027,-0.153 L 0.675,-3.6 -0.423,-6.597 C -0.441,-6.645 -0.45,-6.696 -0.45,-6.75 c 0,-0.249 0.201,-0.45 0.45,-0.45 0.093,0 0.18,0.028 0.251,0.077 L 5.4,-3.6 0.251,-0.077 C 0.18,-0.028 0.093,0 0,0"
         style="fill:#c0311a;fill-opacity:1;fill-rule:nonzero;stroke:none"
         transform="matrix(1.3333333,0,0,-1.3333333,522.22027,216.61493)" />
    </g>
    <g
       id="g1379"
       transform="matrix(0.26458333,0,0,0.26458333,-30.60884,98.24466)">
      <path
         id="path1380"
         d="m 0,0 v -7.237 h -1.55 v 10.8 H 0 l 2.95,-6.48 v 6.48 h 1.551 v -10.8 H 3.329 Z"
         style="fill:#c0311a;fill-opacity:1;fill-rule:nonzero;stroke:none"
         transform="matrix(1.3333333,0,0,-1.3333333,503.162,161.36493)" />
      <path
         id="path1381"
         d="m 0,0 c -0.308,0 -1.7,0.063 -1.7,-4.058 0,-4.151 1.392,-4.088 1.7,-4.088 0.308,0 1.698,-0.063 1.698,4.088 C 1.698,0.063 0.308,0 0,0 m -3.188,-4.05 c 0,5.655 2.624,5.565 3.206,5.565 0.581,0 3.17,0.086 3.17,-5.569 0,-5.696 -2.589,-5.607 -3.17,-5.607 -0.582,0 -3.206,-0.089 -3.206,5.611"
         style="fill:#c0311a;fill-opacity:1;fill-rule:nonzero;stroke:none"
         transform="matrix(1.3333333,0,0,-1.3333333,516.2948,158.3844)" />
    </g>
    <g
       id="g1381"
       transform="matrix(0.26458333,0,0,0.26458333,-30.60884,98.24466)">
      <path
         id="path1382"
         d="M 0,0 H 1.039 L 0.507,2.072 Z m 1.292,-1.011 h -1.545 l -0.481,-1.97 h -1.039 l 1.798,7.2 h 1.014 l 1.798,-7.2 H 1.798 Z"
         style="fill:#c0311a;fill-opacity:1;fill-rule:nonzero;stroke:none"
         transform="matrix(1.3333333,0,0,-1.3333333,503.00427,195.84053)" />
      <path
         id="path1383"
         d="m 0,0 v -4.825 h -1.033 v 7.2 H 0 l 1.966,-4.32 v 4.32 h 1.035 v -7.2 H 2.219 Z"
         style="fill:#c0311a;fill-opacity:1;fill-rule:nonzero;stroke:none"
         transform="matrix(1.3333333,0,0,-1.3333333,509.50853,193.38187)" />
      <path
         id="path1384"
         d="M 0,0 H -1.039 V 3.259 L -2.812,7.2 h 1.089 L -0.507,4.598 0.684,7.2 H 1.798 L 0,3.259 Z"
         style="fill:#c0311a;fill-opacity:1;fill-rule:nonzero;stroke:none"
         transform="matrix(1.3333333,0,0,-1.3333333,518.60253,199.8148)" />
      <path
         id="path1385"
         d="M 0,0 H -1.039 V 6.24 H -2.356 V 7.2 H 1.318 V 6.24 H 0 Z"
         style="fill:#c0311a;fill-opacity:1;fill-rule:nonzero;stroke:none"
         transform="matrix(1.3333333,0,0,-1.3333333,502.43667,214.2148)" />
      <path
         id="path1386"
         d="m 379.153,638.538 h 1.008 v -7.2 h -1.008 z"
         style="fill:#c0311a;fill-opacity:1;fill-rule:nonzero;stroke:none"
         transform="matrix(1.3333333,0,0,-1.3333333,0,1056)" />
      <path
         id="path1387"
         d="M 0,0 -1.341,-4.042 -2.682,0 v -4.042 h -1.037 v 7.2 h 1.037 L -1.341,-0.884 0,3.158 h 1.037 v -7.2 H 0 Z"
         style="fill:#c0311a;fill-opacity:1;fill-rule:nonzero;stroke:none"
         transform="matrix(1.3333333,0,0,-1.3333333,513.95213,208.82573)" />
      <path
         id="path1388"
         d="M 0,0 H 3.395 V -1.011 H 1.039 V -2.83 H 2.533 V -3.815 H 1.039 V -6.19 H 3.674 V -7.2 H 0 Z"
         style="fill:#c0311a;fill-opacity:1;fill-rule:nonzero;stroke:none"
         transform="matrix(1.3333333,0,0,-1.3333333,517.44707,204.61493)" />
    </g>
    <g
       id="g1388"
       transform="matrix(0.26458333,0,0,0.26458333,-30.60884,98.24466)">
      <path
         id="path1389"
         d="m 0,0 c 0.788,-0.494 1.969,-1.186 1.969,-2.607 0,-1.166 -0.889,-2.096 -2.005,-2.096 -1.268,0 -2.03,1.072 -2.03,2.248 h 1.016 c 0,-0.613 0.304,-1.239 1.014,-1.239 0.558,0 1.014,0.505 1.014,1.087 0,1.565 -2.688,1.475 -2.688,3.486 0,1.036 0.812,1.869 1.851,1.869 1.016,0 1.802,-0.783 1.828,-1.87 H 0.978 C 0.953,1.383 0.598,1.712 0.141,1.712 -0.341,1.712 -0.721,1.359 -0.721,0.879 -0.721,0.411 -0.473,0.296 0,0"
         style="fill:#c0311a;fill-opacity:1;fill-rule:nonzero;stroke:none"
         transform="matrix(1.3333333,0,0,-1.3333333,490.04267,179.31187)" />
      <path
         id="path1390"
         d="M 0,0 H -1.039 V 6.24 H -2.357 V 7.2 H 1.318 V 6.24 H 0 Z"
         style="fill:#c0311a;fill-opacity:1;fill-rule:nonzero;stroke:none"
         transform="matrix(1.3333333,0,0,-1.3333333,496.41307,185.41507)" />
      <path
         id="path1391"
         d="m 0,0 c -0.205,0 -1.133,0.042 -1.133,-2.705 0,-2.768 0.928,-2.726 1.133,-2.726 0.205,0 1.132,-0.042 1.132,2.726 C 1.132,0.042 0.205,0 0,0 m -2.125,-2.7 c 0,3.77 1.749,3.71 2.137,3.71 0.388,0 2.113,0.057 2.113,-3.713 0,-3.797 -1.725,-3.737 -2.113,-3.737 -0.388,0 -2.137,-0.06 -2.137,3.74"
         style="fill:#c0311a;fill-opacity:1;fill-rule:nonzero;stroke:none"
         transform="matrix(1.3333333,0,0,-1.3333333,501.80893,176.99467)" />
      <path
         id="path1392"
         d="m 0,0 h 1.059 c 0.604,0 0.933,0.378 0.933,1.035 0,0.607 -0.382,1.011 -0.933,1.011 H 0 Z m 0,-0.985 v -3.159 h -1.033 v 7.2 H 1.11 c 1.135,0 1.891,-0.811 1.891,-2.021 0,-1.314 -0.681,-2.02 -1.891,-2.02 z"
         style="fill:#c0311a;fill-opacity:1;fill-rule:nonzero;stroke:none"
         transform="matrix(1.3333333,0,0,-1.3333333,507.36307,179.89)" />
      <path
         id="path1393"
         d="m 0,0 h 1.059 c 0.604,0 0.933,0.378 0.933,1.035 0,0.607 -0.382,1.011 -0.933,1.011 H 0 Z m 0,-0.985 v -3.159 h -1.033 v 7.2 H 1.11 c 1.135,0 1.891,-0.811 1.891,-2.021 0,-1.314 -0.681,-2.02 -1.891,-2.02 z"
         style="fill:#c0311a;fill-opacity:1;fill-rule:nonzero;stroke:none"
         transform="matrix(1.3333333,0,0,-1.3333333,514.08493,179.89)" />
      <path
         id="path1394"
         d="m 389.572,660.138 h 1.008 v -7.2 h -1.008 z"
         style="fill:#c0311a;fill-opacity:1;fill-rule:nonzero;stroke:none"
         transform="matrix(1.3333333,0,0,-1.3333333,0,1056)" />
      <path
         id="path1395"
         d="m 0,0 v -4.825 h -1.033 v 7.2 H 0 l 1.967,-4.32 v 4.32 h 1.034 v -7.2 H 2.22 Z"
         style="fill:#c0311a;fill-opacity:1;fill-rule:nonzero;stroke:none"
         transform="matrix(1.3333333,0,0,-1.3333333,523.62893,178.98173)" />
      <path
         id="path1396"
         d="m 0,0 c -0.655,0 -2.233,0.122 -2.233,3.713 0,3.592 1.5,3.738 2.156,3.738 1.041,0 1.828,-0.757 1.878,-1.818 h -1.04 c -0.026,0.481 -0.355,0.809 -0.863,0.809 -0.347,0 -1.141,-0.109 -1.141,-2.729 0,-2.621 0.869,-2.703 1.217,-2.703 0.533,0 0.787,0.351 0.787,1.111 v 0.48 H -0.051 V 3.613 H 1.801 V 2.122 C 1.801,0.32 0.615,0 0,0"
         style="fill:#c0311a;fill-opacity:1;fill-rule:nonzero;stroke:none"
         transform="matrix(1.3333333,0,0,-1.3333333,531.95067,185.5828)" />
    </g>
  </g>
</svg>
