<svg width="115.839" height="115.839" viewBox="0 0 30.649 30.649" xmlns="http://www.w3.org/2000/svg">
    <defs>
        <clipPath clipPathUnits="userSpaceOnUse" id="a">
            <path d="M66.854 39h505.292v587.966H66.854Z" transform="translate(-528.192 -514.315)"/>
        </clipPath>
    </defs>
    <path d="M0 0a4.06 4.06 0 0 0-2.89 1.197l-39.227 39.227a4.062 4.062 0 0 0-1.197 2.891c0 1.091.425 2.118 1.197 2.89l39.226 39.227A4.064 4.064 0 0 0 0 86.629a4.06 4.06 0 0 0 2.891-1.197l39.227-39.227a4.061 4.061 0 0 0 1.197-2.89 4.062 4.062 0 0 0-1.197-2.891L2.892 1.197A4.064 4.064 0 0 0 0 0" style="fill:#fcd116;fill-opacity:1;fill-rule:nonzero;stroke:none" transform="matrix(.35278 0 0 -.35278 15.324 30.605)" clip-path="url(#a)"/>
    <path d="M0 0a4.185 4.185 0 0 1-2.979-1.234l-39.227-39.227a4.185 4.185 0 0 1-1.233-2.979c0-1.125.438-2.182 1.233-2.978l39.227-39.227A4.185 4.185 0 0 1 0-86.879c1.125 0 2.183.438 2.979 1.234l39.227 39.227a4.187 4.187 0 0 1 1.234 2.978 4.186 4.186 0 0 1-1.234 2.979L2.979-1.234A4.185 4.185 0 0 1 0 0m0-.25a3.95 3.95 0 0 0 2.802-1.161l39.227-39.227a3.962 3.962 0 0 0 0-5.603L2.802-85.468A3.95 3.95 0 0 0 0-86.629a3.95 3.95 0 0 0-2.802 1.161l-39.227 39.227a3.962 3.962 0 0 0 0 5.603L-2.802-1.411A3.95 3.95 0 0 0 0-.25" style="fill:#000;fill-opacity:1;fill-rule:nonzero;stroke:none" transform="matrix(.35278 0 0 -.35278 15.324 0)"/>
    <path d="M0 0a2.864 2.864 0 0 0 0 4.047l39.227 39.227a2.864 2.864 0 0 0 4.047 0L82.501 4.047a2.864 2.864 0 0 0 0-4.047L43.274-39.227a2.864 2.864 0 0 0-4.047 0z" style="fill:#000;fill-opacity:1;fill-rule:nonzero;stroke:none" transform="matrix(.35278 0 0 -.35278 .772 16.038)"/>
    <path d="M0 0a1.322 1.322 0 0 0 0 1.868l39.227 39.227a1.322 1.322 0 0 0 1.868 0L80.322 1.868a1.322 1.322 0 0 0 0-1.868L41.095-39.227a1.322 1.322 0 0 0-1.868 0z" style="fill:#fcd116;fill-opacity:1;fill-rule:nonzero;stroke:none" transform="matrix(.35278 0 0 -.35278 1.156 15.654)"/>
    <path d="M0 0c-.251 0-1.386.052-1.386-3.309 0-3.384 1.135-3.333 1.386-3.333.251 0 1.385-.051 1.385 3.333C1.385.052.251 0 0 0m-2.599-3.302c0 4.611 2.139 4.537 2.613 4.537.475 0 2.585.07 2.585-4.54 0-4.644-2.11-4.572-2.585-4.572-.474 0-2.613-.072-2.613 4.575" style="fill:#000;fill-opacity:1;fill-rule:nonzero;stroke:none" transform="matrix(.35278 0 0 -.35278 7.447 11.047)"/>
    <path d="M0 0v-5.901h-1.264v8.806H0l2.405-5.284v5.284H3.67v-8.806h-.956Z" style="fill:#000;fill-opacity:1;fill-rule:nonzero;stroke:none" transform="matrix(.35278 0 0 -.35278 9.431 11.69)"/>
    <path d="M0 0h4.152v-1.236H1.27v-2.225h1.827v-1.205H1.27v-2.905h3.223v-1.235H0Z" style="fill:#000;fill-opacity:1;fill-rule:nonzero;stroke:none" transform="matrix(.35278 0 0 -.35278 11.41 10.665)"/>
    <path d="M0 0h1.27v-7.631h3.223v-1.175H0Z" style="fill:#000;fill-opacity:1;fill-rule:nonzero;stroke:none" transform="matrix(.35278 0 0 -.35278 15.324 10.665)"/>
    <path d="M0 0h1.27L.62 2.534Zm1.579-1.236H-.309l-.589-2.41h-1.27L.031 5.16h1.24l2.198-8.806h-1.27z" style="fill:#000;fill-opacity:1;fill-rule:nonzero;stroke:none" transform="matrix(.35278 0 0 -.35278 17.86 12.485)"/>
    <path d="M0 0v-5.901h-1.263v8.806H0l2.405-5.284v5.284H3.67v-8.806h-.956Z" style="fill:#000;fill-opacity:1;fill-rule:nonzero;stroke:none" transform="matrix(.35278 0 0 -.35278 19.965 11.69)"/>
    <path d="M0 0h4.152v-1.236H1.27v-2.225h1.827v-1.205H1.27v-2.905h3.223v-1.235H0Z" style="fill:#000;fill-opacity:1;fill-rule:nonzero;stroke:none" transform="matrix(.35278 0 0 -.35278 21.943 10.665)"/>
    <path d="M0 0v6.246h1.264V-.087c0-.829.484-1.391 1.232-1.391.678 0 1.172.556 1.172 1.391v6.333h1.265V-.019c0-2.003-1.547-2.694-2.437-2.694C1.683-2.713 0-2.184 0 0" style="fill:#000;fill-opacity:1;fill-rule:nonzero;stroke:none" transform="matrix(.35278 0 0 -.35278 5.411 17.839)"/>
    <path d="M0 0v-5.901h-1.264v8.806H0l2.405-5.284v5.284H3.67v-8.806h-.956Z" style="fill:#000;fill-opacity:1;fill-rule:nonzero;stroke:none" transform="matrix(.35278 0 0 -.35278 8.28 16.66)"/>
    <path d="M0 0h-.987v-6.333h.878c1.03 0 1.557.45 1.557 3.12C1.448-.119.677 0 0 0m-2.251-7.57v8.806H.262c.537 0 2.42-.026 2.42-4.387C2.682-7.141.943-7.57.367-7.57z" style="fill:#000;fill-opacity:1;fill-rule:nonzero;stroke:none" transform="matrix(.35278 0 0 -.35278 11.053 16.071)"/>
    <path d="M0 0h4.152v-1.236H1.27v-2.225h1.827v-1.205H1.27v-2.905h3.223v-1.235H0Z" style="fill:#000;fill-opacity:1;fill-rule:nonzero;stroke:none" transform="matrix(.35278 0 0 -.35278 12.62 15.635)"/>
    <path d="M0 0v-2.224h1.294c.742 0 1.142.401 1.142 1.112C2.436-.432 1.973 0 1.295 0Zm1.203-3.43H0v-4.14h-1.264v8.806h2.621c1.381 0 2.313-.927 2.313-2.348 0-1.05-.433-1.823-1.265-2.132L3.668-7.57H2.375Z" style="fill:#000;fill-opacity:1;fill-rule:nonzero;stroke:none" transform="matrix(.35278 0 0 -.35278 15.18 16.071)"/>
    <path d="M0 0h1.294c.74 0 1.142.462 1.142 1.266 0 .742-.467 1.236-1.141 1.236H0Zm0-1.205v-3.863h-1.263v8.806h2.62c1.388 0 2.312-.993 2.312-2.472 0-1.607-.833-2.471-2.312-2.471z" style="fill:#000;fill-opacity:1;fill-rule:nonzero;stroke:none" transform="matrix(.35278 0 0 -.35278 17.448 16.954)"/>
    <path d="M0 0h1.27L.62 2.534Zm1.579-1.236H-.309l-.589-2.41h-1.27L.031 5.16h1.24l2.198-8.806h-1.27z" style="fill:#000;fill-opacity:1;fill-rule:nonzero;stroke:none" transform="matrix(.35278 0 0 -.35278 19.88 17.455)"/>
    <path d="M0 0c.963-.604 2.407-1.451 2.407-3.189 0-1.425-1.086-2.563-2.451-2.563-1.551 0-2.482 1.312-2.482 2.749h1.242c0-.749.372-1.514 1.24-1.514.682 0 1.24.617 1.24 1.328 0 1.914-3.287 1.804-3.287 4.264 0 1.267.993 2.285 2.264 2.285 1.241 0 2.203-.957 2.234-2.286H1.196c-.03.618-.465 1.02-1.023 1.02-.59 0-1.055-.432-1.055-1.019C-.882.503-.578.362 0 0" style="fill:#000;fill-opacity:1;fill-rule:nonzero;stroke:none" transform="matrix(.35278 0 0 -.35278 22.275 16.767)"/>
    <path d="M0 0c.963-.604 2.407-1.451 2.407-3.189 0-1.425-1.086-2.563-2.451-2.563-1.551 0-2.482 1.312-2.482 2.749h1.242c0-.749.372-1.514 1.24-1.514.682 0 1.24.617 1.24 1.328 0 1.914-3.287 1.804-3.287 4.264 0 1.267.993 2.285 2.264 2.285 1.241 0 2.203-.957 2.234-2.286H1.196c-.03.618-.465 1.02-1.023 1.02-.59 0-1.055-.432-1.055-1.019C-.882.503-.578.362 0 0" style="fill:#000;fill-opacity:1;fill-rule:nonzero;stroke:none" transform="matrix(.35278 0 0 -.35278 24.388 16.767)"/>
</svg>
