<svg xmlns="http://www.w3.org/2000/svg" width="80.672" height="80.675" viewBox="0 0 21.344 21.345">
    <path style="fill:#fccf34;fill-opacity:1;fill-rule:nonzero;stroke:none" d="M0 0a2.745 2.745 0 0 0-1.946-.806c-.705 0-1.41.269-1.947.806l-13.625 13.625-13.625 13.625a2.74 2.74 0 0 0-.805 1.948c0 .703.267 1.408.805 1.945l13.625 13.625 13.625 13.625a2.746 2.746 0 0 0 1.947.807c.705 0 1.408-.27 1.946-.807l13.625-13.625L27.25 31.143a2.744 2.744 0 0 0 .806-1.945c0-.706-.269-1.411-.806-1.948L13.625 13.625Z" transform="matrix(.35278 0 0 -.35278 11.359 20.973)"/>
    <path style="fill:none;stroke:#fccf34;stroke-width:.5;stroke-linecap:butt;stroke-linejoin:miter;stroke-miterlimit:4;stroke-dasharray:none;stroke-opacity:1" d="M0 0a2.745 2.745 0 0 0-1.946-.806c-.705 0-1.41.269-1.947.806l-13.625 13.625-13.625 13.625a2.74 2.74 0 0 0-.805 1.948c0 .703.267 1.408.805 1.945l13.625 13.625 13.625 13.625a2.746 2.746 0 0 0 1.947.807c.705 0 1.408-.27 1.946-.807l13.625-13.625L27.25 31.143a2.744 2.744 0 0 0 .806-1.945c0-.706-.269-1.411-.806-1.948L13.625 13.625Z" transform="matrix(.35278 0 0 -.35278 11.359 20.973)"/>
    <path style="fill:#231f20;fill-opacity:1;fill-rule:nonzero;stroke:none" d="M0 0a.92.92 0 0 0-1.297 0l-27.25 27.25a.922.922 0 0 0 0 1.299l27.25 27.25a.92.92 0 0 0 1.297 0l27.25-27.25a.922.922 0 0 0 0-1.299zm28.029 29.326L.779 56.576a2.021 2.021 0 0 1-2.855 0l-27.25-27.25a2.019 2.019 0 0 1 0-2.853l27.25-27.25a2.021 2.021 0 0 1 2.855 0l27.25 27.25a2.02 2.02 0 0 1 0 2.853" transform="matrix(.35278 0 0 -.35278 10.9 20.515)"/>
    <path style="fill:#231f20;fill-opacity:1;fill-rule:nonzero;stroke:none" d="M0 0v4.584h-27.559l5.872-5.871H12.17L13.457 0Z" transform="matrix(-.35278 0 0 -.35278 8.986 13.585)"/>
    <path style="fill:#231f20;fill-opacity:1;fill-rule:nonzero;stroke:none" d="M-1.168-.428c-.052.135-.08.279-.183.388-.107.114-.205.214-.36.26a.92.92 0 0 1-.426.049c-.148-.027-.312-.055-.46-.003-.136.051-.254.1-.374.186-.11.076.003.256.048.339.054.098.114.254.095.367-.012.073-.041.137-.039.213.002.07.021.135.02.206-.001.146-.087.265-.1.404-.013.132-.018.26-.077.385-.133.293-.35.422-.64.528-.523.193-1.267-.245-1.366-.793a1.723 1.723 0 0 1 .073-.899c.097-.28.34-.483.434-.753.015-.046.068-.142.062-.19-.01-.073-.092-.055-.16-.05a.726.726 0 0 1-.39-.12.82.82 0 0 0-.36-.173c-.133-.023-.284.029-.413-.013-.517-.166-.715-.64-.627-1.153l-1.155-.197-.44 3.804 15.641 2.67.922-3.795Zm13.64-5.074c-.033.061-.074.115-.11.175-.023.033.014.171.015.22.014.325-.097.576-.296.829-.073.094-.079.297-.086.414-.008.103-.027.203-.044.302-.116.68-.227 1.36-.366 2.034-.114.558-.251 1.14-.614 1.588-.186.234-.42.39-.683.525-.08.04-.121.035-.145.114l-.08.258c-.235.769-.472 1.538-.709 2.306L8.686 5.44a1.315 1.315 0 0 1-.202.437c-.177.241-.507.335-.794.305-.2-.02-14.829-2.532-15.949-2.723-.287-.049-.591-.1-.775-.362a.887.887 0 0 1-.185-.578l.03-.75.185-4.391c.002-.056-.201-.19-.24-.242-.08-.116-.179-.226-.244-.353-.14-.272-.182-.552-.22-.851-.032-.269.007-.581.043-.85.041-.305.09-.61.13-.916.088-.626.219-1.245.324-1.867.009-.051.04-.123.04-.17 0-.062-.062-.156-.078-.22a1.024 1.024 0 0 1-.019-.446c.027-.156.08-.292.16-.428.025-.042-.03-.125-.039-.176a1.295 1.295 0 0 1-.016-.234.871.871 0 0 1 .17-.496c.053-.07.108-.11.126-.199.022-.116.044-.23.068-.346l1.448.258.385-2.203c.157-.44.71-.716 1.144-.747.1-.007.275.009.4.03.125.02.296.064.387.103.436.191.918.57.831 1.085l-.376 2.205L8.318-7.48l.377-2.206c.09-.515.67-.712 1.145-.747a2.12 2.12 0 0 1 .785.135c.4.174.83.616.832 1.085l-.367 2.195 1.46.25a17.62 17.62 0 0 1-.037.222c-.011.071-.048.161-.018.23a.93.93 0 0 1 .085.404.845.845 0 0 1-.109.41" transform="matrix(.35278 0 0 -.35278 10.672 7.183)"/>
    <path style="fill:#231f20;fill-opacity:1;fill-rule:nonzero;stroke:none" d="m0 0-.111-.476L.898-1.873c.111.063.235.104.368.122z" transform="matrix(.35278 0 0 -.35278 7.99 5.85)"/>
</svg>
